Coordinates
version=1
nRows=10
nColumns=22
inDegrees=yes

Units are S.I. units (second, meters, Newtons, ...)
If the header above contains a line with 'inDegrees', this indicates whether rotational values are in degrees (yes) or radians (no).

endheader
time	pelvis_tilt	pelvis_list	pelvis_rotation	pelvis_tx	pelvis_ty	pelvis_tz	hip_flexion_r	hip_adduction_r	hip_rotation_r	knee_angle_r	ankle_angle_r	subtalar_angle_r	hip_flexion_l	hip_adduction_l	hip_rotation_l	knee_angle_l	ankle_angle_l	subtalar_angle_l	lumbar_extension	lumbar_bending	lumbar_rotation
      0.01000000	     -0.71334459	      2.88133668	    173.95117605	      0.36052961	      0.92895630	      0.98539467	     -0.84851097	      0.61296231	      2.22442247	     -9.36511498	      6.05012211	      0.33025002	     -2.33920068	     -7.90414729	    -10.87278550	    -10.03559787	      9.20264254	      4.16017193	     -4.93003328	     -0.09620316	      2.83100638
      0.02000000	     -0.37683806	      2.93958926	    173.78499529	      0.36129681	      0.92850401	      0.98481207	     -0.37191217	      0.72624558	      1.78684296	     -9.45212602	      5.98526705	      0.32051003	     -1.86143093	     -8.06076701	    -11.05515537	    -10.26087368	      9.30554224	      4.16799510	     -4.64541145	     -0.04164603	      3.00646810
      0.03000000	     -0.36957340	      2.93563141	    173.79185827	      0.36125203	      0.92849973	      0.98473955	     -0.36945165	      0.72747823	      1.77380388	     -9.44758122	      5.98721593	      0.31874016	     -1.85771314	     -8.06224720	    -11.04326672	    -10.25599256	      9.29883447	      4.17151182	     -4.63698941	     -0.04722598	      3.02864738
      0.04000000	     -0.36617053	      2.93368253	    173.79763796	      0.36120782	      0.92850071	      0.98463572	     -0.36991691	      0.73252613	      1.76956517	     -9.44746670	      5.98746777	      0.31840520	     -1.85755118	     -8.06852355	    -11.04233659	    -10.25378008	      9.29807628	      4.17244694	     -4.63369472	     -0.05443923	      3.03315932
      0.05000000	     -0.35093065	      2.94075592	    173.80672652	      0.36114767	      0.92848887	      0.98453594	     -0.36406970	      0.74707406	      1.72175445	     -9.43683120	      5.98893765	      0.31535142	     -1.84811103	     -8.08485331	    -11.03027453	    -10.24685220	      9.29248306	      4.18067050	     -4.61498710	     -0.04757613	      3.06767181
      0.06000000	     -0.30583754	      2.96562649	    173.83947059	      0.36114389	      0.92843321	      0.98443534	     -0.31147259	      0.78722935	      1.63248701	     -9.45568532	      5.97491052	      0.29727730	     -1.78068082	     -8.13201335	    -10.98694451	    -10.27778285	      9.31083590	      4.24079070	     -4.57287749	     -0.01989079	      3.04624568
      0.07000000	     -0.29082217	      2.98859730	    173.83922101	      0.36111462	      0.92842403	      0.98427711	     -0.29071777	      0.82177233	      1.57159040	     -9.47412607	      5.97027028	      0.29365147	     -1.77200890	     -8.17002831	    -10.98982307	    -10.27557489	      9.31051543	      4.25432734	     -4.56115846	     -0.00270844	      3.07343421
      0.08000000	     -0.27172818	      3.02116436	    173.84815444	      0.36110684	      0.92840765	      0.98411851	     -0.26578321	      0.86801023	      1.49160081	     -9.49186255	      5.95909890	      0.28863538	     -1.74923177	     -8.22174562	    -10.98537781	    -10.28712243	      9.32054537	      4.27582189	     -4.54812587	      0.02426042	      3.09181385
      0.09000000	     -0.25189805	      3.05392331	    173.85837193	      0.36109273	      0.92839096	      0.98396119	     -0.24153802	      0.91434986	      1.41133303	     -9.50806398	      5.94905030	      0.28309451	     -1.72560940	     -8.27409306	    -10.97831714	    -10.29954693	      9.33086776	      4.29810672	     -4.53293291	      0.05046241	      3.11179488
      0.10000000	     -0.24155694	      3.07059763	    173.86537909	      0.36105837	      0.92838205	      0.98381736	     -0.23613069	      0.94109116	      1.35895415	     -9.50680438	      5.95011583	      0.28090406	     -1.71721132	     -8.30461631	    -10.97332839	    -10.30122395	      9.33010546	      4.30511734	     -4.52292854	      0.05654222	      3.14792504
